<svg width="919" height="578" xmlns="http://www.w3.org/2000/svg" xmlns:xlink="http://www.w3.org/1999/xlink" overflow="hidden"><defs><clipPath id="clip0"><rect x="19" y="104" width="919" height="578"/></clipPath></defs><g clip-path="url(#clip0)" transform="translate(-19 -104)"><path d="M329 416.667C329 405.805 337.805 397 348.667 397L534.333 397C545.195 397 554 405.805 554 416.667L554 495.333C554 506.195 545.195 515 534.333 515L348.667 515C337.805 515 329 506.195 329 495.333Z" stroke="#8FAADC" stroke-width="6" stroke-miterlimit="8" fill="#9DC3E6" fill-rule="evenodd"/><text fill="#FFFFFF" font-family="Courier New,Courier New_MSFontService,sans-serif" font-weight="700" font-size="32" transform="translate(403.397 431)">bank<tspan font-family="Georgia,Georgia_MSFontService,sans-serif" font-weight="400" font-size="19" x="-32.8333" y="28">Setup of the class </tspan><tspan font-family="Georgia,Georgia_MSFontService,sans-serif" font-weight="400" font-size="19" x="-43.1667" y="51">`Bank`, most of the </tspan><tspan font-family="Georgia,Georgia_MSFontService,sans-serif" font-weight="400" font-size="19" x="-48.6667" y="73">attributes &amp; methods</tspan></text><path d="M177 578.834C177 567.88 185.88 559 196.834 559L381.166 559C392.12 559 401 567.88 401 578.834L401 658.166C401 669.12 392.12 678 381.166 678L196.834 678C185.88 678 177 669.12 177 658.166Z" stroke="#BDD7EE" stroke-width="6" stroke-miterlimit="8" fill="#9DC3E6" fill-rule="evenodd"/><text fill="#FFFFFF" font-family="Courier New,Courier New_MSFontService,sans-serif" font-weight="700" font-size="32" transform="translate(212.364 594)">tau0tau3<tspan font-family="Georgia,Georgia_MSFontService,sans-serif" font-weight="400" font-size="19" x="20.92" y="28">All supported </tspan><tspan font-family="Georgia,Georgia_MSFontService,sans-serif" font-weight="400" font-size="19" x="-12.2467" y="51">parameter generators </tspan><tspan font-family="Georgia,Georgia_MSFontService,sans-serif" font-weight="400" font-size="19" x="-16.6667" y="72">&amp; </tspan><tspan font-family="Georgia,Georgia_MSFontService,sans-serif" font-weight="400" font-size="19" x="1.16667" y="72">funcs</tspan><tspan font-family="Georgia,Georgia_MSFontService,sans-serif" font-weight="400" font-size="19" x="49.8333" y="72">for constraints</tspan></text><path d="M364 198.834C364 187.88 372.88 179 383.834 179L569.166 179C580.12 179 589 187.88 589 198.834L589 278.166C589 289.12 580.12 298 569.166 298L383.834 298C372.88 298 364 289.12 364 278.166Z" stroke="#BDD7EE" stroke-width="6" stroke-miterlimit="8" fill="#9DC3E6" fill-rule="evenodd"/><text fill="#FFFFFF" font-family="Courier New,Courier New_MSFontService,sans-serif" font-weight="700" font-size="32" transform="translate(438.181 225)">psds<tspan font-family="Georgia,Georgia_MSFontService,sans-serif" font-weight="400" font-size="19" x="-41.4133" y="28">All supported noise </tspan><tspan font-family="Georgia,Georgia_MSFontService,sans-serif" font-weight="400" font-size="19" x="-54.7467" y="51">models &amp; PSD utensils</tspan></text><path d="M701 301.834C701 290.88 709.88 282 720.834 282L906.166 282C917.12 282 926 290.88 926 301.834L926 381.166C926 392.12 917.12 401 906.166 401L720.834 401C709.88 401 701 392.12 701 381.166Z" stroke="#BDD7EE" stroke-width="6" stroke-miterlimit="8" fill="#9DC3E6" fill-rule="evenodd"/><text fill="#FFFFFF" font-family="Courier New,Courier New_MSFontService,sans-serif" font-weight="700" font-size="32" transform="translate(727.357 317)">waveforms<tspan font-family="Georgia,Georgia_MSFontService,sans-serif" font-weight="400" font-size="19" x="30.5" y="28">All supported </tspan><tspan font-family="Georgia,Georgia_MSFontService,sans-serif" font-weight="400" font-size="19" x="6.74664" y="51">waveform template </tspan><tspan font-family="Georgia,Georgia_MSFontService,sans-serif" font-weight="400" font-size="19" x="58.1666" y="73">classes</tspan></text><path d="M23 126.834C23 115.88 31.8798 107 42.8337 107L227.166 107C238.12 107 247 115.88 247 126.834L247 206.166C247 217.12 238.12 226 227.166 226L42.8337 226C31.8798 226 23 217.12 23 206.166Z" stroke="#B4C7E7" stroke-width="6" stroke-miterlimit="8" fill="#8FAADC" fill-rule="evenodd"/><text fill="#FFFFFF" font-family="Courier New,Courier New_MSFontService,sans-serif" font-weight="700" font-size="37" transform="translate(79.2098 155)">sbank<tspan font-family="Georgia,Georgia_MSFontService,sans-serif" font-weight="400" font-size="19" x="-10.7467" y="30">Main part of the </tspan><tspan font-family="Georgia,Georgia_MSFontService,sans-serif" font-weight="400" font-size="19" x="-3.57999" y="52">command tool</tspan></text><path d="M363.85 240.746 303.425 240.746 303.425 167 305.425 169 265 169 265 165 307.425 165 307.425 238.746 305.425 236.746 363.85 236.746ZM267 177 247 167 267 157Z" fill="#9DC3E6"/><text fill="#002060" font-family="Consolas,Consolas_MSFontService,sans-serif" font-weight="400" font-size="19" transform="translate(181.566 258)">noise_model<tspan font-size="19" x="113.667" y="0">: dict</tspan></text><path d="M17.9998-2 232.37-2 232.37 176.373 228.37 176.373 228.37 0 230.37 2 17.9998 2ZM20 10 0 0 20-10ZM240.37 174.373 230.37 194.373 220.37 174.373Z" fill="#9DC3E6" transform="matrix(1.83697e-16 1 1 -1.83697e-16 135 226)"/><path d="M701 540.667C701 529.805 709.805 521 720.667 521L906.333 521C917.195 521 926 529.805 926 540.667L926 619.333C926 630.195 917.195 639 906.333 639L720.667 639C709.805 639 701 630.195 701 619.333Z" stroke="#ADB9CA" stroke-width="6" stroke-miterlimit="8" fill="#8497B0" fill-rule="evenodd"/><text fill="#FFFFFF" font-family="Courier New,Courier New_MSFontService,sans-serif" font-weight="700" font-size="32" transform="translate(746.715 566)">overlap<tspan font-family="Georgia,Georgia_MSFontService,sans-serif" font-weight="400" font-size="19" x="-17.8333" y="28">`match` calculation, </tspan><tspan font-family="Georgia,Georgia_MSFontService,sans-serif" font-weight="400" font-size="19" x="-8.33331" y="50">related to </tspan><tspan font-family="Georgia,Georgia_MSFontService,sans-serif" font-style="italic" font-weight="400" font-size="19" x="74.6667" y="50">cpython</tspan></text><path d="M0-2 117.583-2 117.583 548.251 113.583 548.251 113.583 0 115.583 2 0 2ZM125.583 546.25 115.583 566.25 105.583 546.25Z" fill="#9DC3E6" transform="matrix(-1.83697e-16 -1 -1 1.83697e-16 813.25 282.583)"/><path d="M0-2 61.9704-2 61.9704 0.191286 59.9704-1.80871 101.941-1.80871 101.941 2.19129 57.9704 2.19129 57.9704 0 59.9704 2 0 2ZM99.9408-9.80871 119.941 0.191286 99.9408 10.1913Z" fill="#9DC3E6" transform="matrix(-1.83697e-16 -1 -1 1.83697e-16 814.191 520.941)"/><text fill="#002060" font-family="Consolas,Consolas_MSFontService,sans-serif" font-weight="400" font-size="19" transform="translate(748.771 467)">(match functions)</text><path d="M176.929 620.633 68 620.633 68 244 72 244 72 618.633 70 616.633 176.929 616.633ZM60 246 70 226 80 246Z" fill="#9DC3E6"/><text fill="#002060" font-family="Arial,Arial_MSFontService,sans-serif" font-weight="400" font-size="19" transform="translate(145.205 334)">•<tspan font-family="Consolas,Consolas_MSFontService,sans-serif" font-size="19" x="30" y="0">bank:</tspan><tspan font-family="Consolas,Consolas_MSFontService,sans-serif" font-size="19" x="0" y="22">Bank object</tspan><tspan font-size="19" x="0" y="44">•</tspan><tspan font-family="Consolas,Consolas_MSFontService,sans-serif" font-size="19" x="30" y="44">proposal:</tspan><tspan font-family="Consolas,Consolas_MSFontService,sans-serif" font-size="19" x="0" y="67">generator</tspan><tspan font-size="19" x="0" y="89">•</tspan><tspan font-family="Consolas,Consolas_MSFontService,sans-serif" font-size="19" x="30" y="89">tmplt_class</tspan><tspan font-family="Consolas,Consolas_MSFontService,sans-serif" font-size="19" x="143.667" y="89">:</tspan><tspan font-family="Consolas,Consolas_MSFontService,sans-serif" font-size="19" x="0" y="112">(Template) object</tspan><tspan font-family="Consolas,Consolas_MSFontService,sans-serif" font-size="19" x="-78.2461" y="307">proposals:</tspan><tspan font-family="Consolas,Consolas_MSFontService,sans-serif" font-size="19" x="-52.4128" y="329">dict</tspan><tspan font-family="Consolas,Consolas_MSFontService,sans-serif" font-size="19" x="190.642" y="-179">waveforms: dict</tspan></text><path d="M443.389 533 443.389 620.078 419 620.078 419 616.078 441.389 616.078 439.389 618.078 439.389 533ZM431.389 535 441.389 515 451.389 535ZM421 628.078 401 618.078 421 608.078Z" fill="#9DC3E6"/><path d="M18-2 75.6276-2 75.6276 114.787 73.6276 112.787 129.255 112.787 129.255 116.787 71.6276 116.787 71.6276 0 73.6276 2 18 2ZM20 10 0 0 20-10ZM127.255 104.787 147.255 114.787 127.255 124.787Z" fill="#9DC3E6" transform="matrix(1 0 0 -1 554 455.787)"/><text fill="#002060" font-family="Consolas,Consolas_MSFontService,sans-serif" font-weight="400" font-size="19" transform="translate(455.644 587)">proposal:<tspan font-size="19" x="0" y="22">generator</tspan><tspan font-size="19" x="103.678" y="-107">tmplt_class</tspan><tspan font-size="19" x="217.344" y="-107">:</tspan><tspan font-size="19" x="109.844" y="-85">(Template) </tspan><tspan font-size="19" x="130.511" y="-63">object</tspan></text><path d="M478.787 316 478.787 349.72 442 349.72 444 347.72 444 379.439 440 379.439 440 345.72 476.787 345.72 474.787 347.72 474.787 316ZM466.787 318 476.787 298 486.787 318ZM452 377.439 442 397.439 432 377.439Z" fill="#9DC3E6"/><text fill="#002060" font-family="Consolas,Consolas_MSFontService,sans-serif" font-weight="400" font-size="19" transform="translate(330.093 336)">(PSD utensils)</text></g></svg>